<svg width="60" height="60" viewBox="0 0 30 30" xmlns="http://www.w3.org/2000/svg"><path d="M13.504 6.201a6.113 6.113 0 012.91-.01l1.15-1.772a1.516 1.516 0 01-.293-.9c0-.839.677-1.519 1.513-1.519.836 0 1.514.68 1.514 1.519a1.516 1.516 0 01-1.695 1.508l-1.02 1.57c1.064.488 2.03 1.265 2.845 2.263-.209.058-.426.115-.65.17-1.546.383-3.105.612-4.57.612-.172 0-.346-.003-.522-.01-1.335-.047-2.776-.267-4.23-.604a29.197 29.197 0 01-.886-.22c.798-.963 1.736-1.715 2.768-2.195l-1.025-1.578a1.516 1.516 0 01-1.611-1.516C9.702 2.68 10.38 2 11.216 2s1.513.68 1.513 1.519c0 .365-.128.7-.342.962l1.117 1.72zM6.949 18.708c.087.762.233 1.498.43 2.2l-3.406 1.376c-.62.25-.93.969-.676 1.598.256.633.969.934 1.596.68l3.37-1.362c1.463 2.898 3.925 4.8 6.715 4.8 2.783 0 5.239-1.892 6.703-4.777l3.426 1.384a1.224 1.224 0 001.596-.68 1.232 1.232 0 00-.676-1.598l-3.457-1.397c.2-.71.348-1.453.436-2.224h3.769c.668 0 1.225-.55 1.225-1.229 0-.683-.549-1.228-1.225-1.228h-3.691a14.584 14.584 0 00-.22-1.896l3.163-1.278c.62-.25.93-.969.676-1.598a1.224 1.224 0 00-1.596-.68L22.2 11.973c-.25-.654-.547-1.27-.885-1.839-.37.111-.768.22-1.189.325-1.651.409-3.322.654-4.92.654-.188 0-.38-.003-.573-.01-1.44-.051-2.969-.285-4.506-.641a30.163 30.163 0 01-1.46-.377 11.95 11.95 0 00-.922 1.911l-2.853-1.153a1.224 1.224 0 00-1.596.68c-.254.63.056 1.348.676 1.599l3.114 1.258a14.59 14.59 0 00-.215 1.87H3.225C2.557 16.25 2 16.8 2 17.48c0 .683.549 1.228 1.225 1.228H6.95z" fill="#15A9CE" fill-rule="evenodd"/></svg>