<svg id="Layer_1" data-name="Layer 1" xmlns="http://www.w3.org/2000/svg" viewBox="0 0 340 340"><defs><style>.cls-2,.cls-3{fill:#fff;fill-rule:evenodd}.cls-2{opacity:.5}</style></defs><path fill="#ff931e" d="M0 0h340v340H0z"/><path class="cls-2" d="M310 210c-39.85-58-92.81-64.8-122-53-56.22 22.73-85.64 49.69-158-12 .23 61.77 59.27 118.7 101 112s101.15-72.81 179-47z"/><path class="cls-3" d="M152 199c44.38-20.81 76.23-19 89-17 23 3.66 49.12 10.49 69 28-38.57-65.27-81.65-63.48-128-56-57.4 9.26-79.64 52.69-152-9 23.69 78.47 67 79.78 122 54z"/><path class="cls-2" d="M220 136c-23.45-36.39-57.78-42.85-77-38-37 9.35-56.81 22.55-102-17-1.53 35.05 37.78 67.17 65 66 41.14-.34 64.28-30.55 114-11z"/><path class="cls-3" d="M119 120c29.3-9 49.78-7 58-5 14.8 3.52 30.61 9.81 43 21-23.45-36.39-46.58-44-80-41-37.07 3.31-53.81 25.55-99-14 13.21 46 41.69 50.16 78 39z"/></svg>