<svg width="60" height="60" xmlns="http://www.w3.org/2000/svg" viewBox="0 0 56 50.4"><path d="M34.2 0l-7.06 10.27s-.76 2.18 2.54 3C36.41 14.46 45 10.8 47.91 8.45L56 0zM17.37 18.85a7.18 7.18 0 00-4.66 4l-1.91 6.21a3.5 3.5 0 00.06 2.85l3.46 6.56a2.27 2.27 0 003 1c.92-.48 1.37-2.05 1.18-4.38a14.7 14.7 0 00-2-6c1-1.37 1.8-2.49 2.33-3.25a29.18 29.18 0 01-1.46-6.99zm22.42 15.62c.53 2.4.27 4.42-.7 5.67a2.12 2.12 0 01-2.2 1 3.12 3.12 0 01-1 2.49 3 3 0 01-2.24.69 2.29 2.29 0 01-.78 2.11 2.54 2.54 0 01-2.21.72S31 48 29.82 49s-4.13-.46-4.63-.84l-.79-.62a2.49 2.49 0 01.6-4.16 2.45 2.45 0 01-.07-2.65 2.22 2.22 0 012.84-.94 2.33 2.33 0 01.59-2.57 2.24 2.24 0 012.8-.22 2.45 2.45 0 01.21-2 2.08 2.08 0 012.34-1 11.15 11.15 0 013.6 1.91 5 5 0 00.35-1.13 5.84 5.84 0 002.13-.31z" fill="#15a9ce"/><path d="M46.19 28.51a3.71 3.71 0 00.32-3.83s2.7-1.35 2-4c0 0 2.73-1.82 1.51-4.51a4.46 4.46 0 001.91-3.05c.27-2.21-.82-3-2.42-3.16-3.27 2.82-13.11 6.7-19.84 5.47-3-.57-4.52-2.22-4.58-4.25 0-.45 0-1.25-.69-1.47-3.14-.86-4.56 4.08-4.86 7.12-.39 4 1.71 9.31 1.71 9.31-.33.52-1.21 1.76-2.4 3.4A16.93 16.93 0 0120.34 35c.07 1.2.26 4.85-2.15 6.11a4 4 0 01-5.5-1.79l-.44-.85L0 51.92h22.77l1.9-1.65a5.43 5.43 0 01-3.24-4.42 4.66 4.66 0 011.05-3.16 4.7 4.7 0 01.6-3.06 4.59 4.59 0 012.64-2.11 5.48 5.48 0 011-1.67 4.08 4.08 0 012.57-1.47 4.06 4.06 0 014.82-2.54 8.31 8.31 0 013.14 1.41 10.86 10.86 0 008.94-4.74z" fill="#15a9ce"/></svg>