<svg width="60" height="60" viewBox="0 0 30 30" xmlns="http://www.w3.org/2000/svg"><path d="M6.7 14.128l-.152-.343c-.2-.009-2.796-.112-4.274 0-.143.035-.502-.231-.063-.342 1.092-.114 3.825-.015 4.202-.001-.282-.863-.398-1.846-.398-2.933 0-1.533.555-2.783 1.464-3.762-.145-.355-.623-1.784.15-3.715 0 0 1.186-.374 3.872 1.453a13.494 13.494 0 013.53-.46c1.087 0 2.171.126 3.191.38 2.603-1.738 3.753-1.373 3.753-1.373.653 1.627.415 2.898.237 3.47 1.017 1.012 1.644 2.343 1.644 4.006 0 1.088-.067 2.07-.283 2.934.32-.012 3.11-.114 4.216.001.439.11.08.377-.063.342-1.446-.11-3.962-.013-4.258-.001l-.122.345c.587-.038 3.957-.222 4.201.578.117.315-.172.205-.271.1-.78-.639-3.67-.411-4.041-.379-.762 1.664-2.39 2.735-5.743 3.066.582.394 1.177 1.14 1.177 2.55v3.613s.075.895.896 1.193c0 0 .486.335-.037.521 0 0-2.278.187-2.278-1.676v-2.757s.09-1.016-.448-1.435v4.49s.037 1.08.597 1.49c0 0 .373.67-.448.484 0 0-1.569-.223-1.643-2.049l-.036-4.582h-.377l-.036 4.582c-.075 1.826-1.643 2.05-1.643 2.05-.822.185-.448-.485-.448-.485.56-.41.597-1.49.597-1.49v-4.529c-.538.38-.448 1.474-.448 1.474v2.757c0 1.862-2.278 1.676-2.278 1.676-.524-.186-.038-.521-.038-.521.822-.298.897-1.193.897-1.193V21.13c-3.53.786-4.26-1.662-4.26-1.662-.561-1.435-1.373-1.817-1.373-1.817-1.13-.773.083-.755.083-.755 1.252.093 1.906 1.286 1.906 1.286 1.168 2.004 3.115 1.288 3.73.995.187-.87.647-1.385 1.099-1.687-3.144-.338-4.927-1.407-5.843-3.06-.32-.028-3.265-.268-4.053.377-.099.106-.389.216-.272-.1.242-.792 3.555-.618 4.186-.578z" fill="#fff"/></svg>