<svg xmlns="http://www.w3.org/2000/svg" viewBox="0 0 274 80"><g fill="#fff"><path d="M1 59v17a3 3 0 003 3h84a3 3 0 003-3V59a167.38 167.38 0 01-45 6 167.38 167.38 0 01-45-6z"/><path d="M88 1H4a3 3 0 00-3 3v49c14.57 4.2 29.65 7 45 7s30.43-2.8 45-7V4a3 3 0 00-3-3zm16 13.73a1 1 0 112 0V29.4h6.24a.91.91 0 01.89.92.88.88 0 01-.89.89H105a1 1 0 01-1-1zm12.77-.34a1.14 1.14 0 012.26 0v.32a1.14 1.14 0 01-2.26 0zm.18 4.85a1 1 0 111.9 0v11.13a.93.93 0 01-.94 1 1 1 0 01-1-1zM124 33.72a.89.89 0 01-.5-.8.91.91 0 01.87-.84.8.8 0 01.42.12 8.05 8.05 0 004.54 1.39c2.83 0 4.67-1.59 4.67-4.59v-1.48a6 6 0 01-5 2.7 5.92 5.92 0 01-6-6v-.05a6.07 6.07 0 0111-3.47v-1.46a.94.94 0 01.94-1 1 1 0 011 1V29a6.18 6.18 0 01-1.64 4.54 6.73 6.73 0 01-4.88 1.71 10 10 0 01-5.42-1.53zm10-9.52v-.05a4.49 4.49 0 00-4.7-4.34 4.24 4.24 0 00-4.44 4.32v.05a4.34 4.34 0 004.44 4.36 4.52 4.52 0 004.7-4.34zm6.26-10.2a1 1 0 111.91 0v6.66a4.84 4.84 0 014.39-2.5c3.1 0 4.9 2.08 4.9 5.13v7.11a1 1 0 11-1.9 0v-6.67c0-2.38-1.29-3.87-3.55-3.87a3.77 3.77 0 00-3.84 4v6.49a.93.93 0 01-.94 1 1 1 0 01-1-1zM156 27.82v-7.73h-1a.87.87 0 01-.84-.85.85.85 0 01.84-.84h1v-3a1 1 0 01.94-1 1 1 0 011 1v3h3.32a.87.87 0 01.87.84.85.85 0 01-.87.85h-3.32v7.48A1.9 1.9 0 00160 29.7a5.31 5.31 0 001.16-.17.82.82 0 01.82.82.79.79 0 01-.54.74 4.9 4.9 0 01-1.89.35 3.26 3.26 0 01-3.55-3.62zM166.16 14a1 1 0 111.91 0v7a5.75 5.75 0 014.93-2.87c3.07 0 6.12 2.43 6.12 6.64v.05c0 4.19-3 6.67-6.12 6.67a5.78 5.78 0 01-4.91-2.73v1.61a1 1 0 01-.94 1 1 1 0 01-1-1zm11 10.88v-.08c0-3-2.08-5-4.51-5a4.78 4.78 0 00-4.65 4.97v.05a4.78 4.78 0 004.64 5c2.47-.04 4.5-1.88 4.5-4.97zM188 31.51a6.37 6.37 0 01-6.4-6.66v-.05c0-3.7 2.61-6.67 6.15-6.67 3.79 0 5.95 3.1 5.95 6.49a.89.89 0 01-.89.89h-9.27a4.47 4.47 0 004.46 4.34 5.23 5.23 0 003.69-1.49.85.85 0 01.54-.22.81.81 0 01.55 1.44 6.52 6.52 0 01-4.78 1.93zm3.79-7.41c-.2-2.33-1.54-4.36-4.09-4.36-2.23 0-3.91 1.86-4.16 4.36zm5.05-4.86a1 1 0 111.91 0v1.39a4.84 4.84 0 014.38-2.5c3.1 0 4.91 2.08 4.91 5.13v7.11a1 1 0 11-1.91 0v-6.64c0-2.38-1.29-3.87-3.54-3.87a3.77 3.77 0 00-3.84 4v6.49a.93.93 0 01-.94 1 1 1 0 01-1-1zM224 30.37a1 1 0 11-1.91 0v-1.73a5.77 5.77 0 01-4.9 2.85 6.25 6.25 0 01-6.13-6.64v-.05a6.29 6.29 0 016.13-6.67 5.78 5.78 0 014.9 2.73V14a.93.93 0 01.94-1 1 1 0 011 1zm-11-5.6v.05a4.64 4.64 0 004.51 5 4.79 4.79 0 004.64-5v-.05a4.76 4.76 0 00-4.64-4.93c-2.46 0-4.51 1.83-4.51 4.93zM103.36 41h11.44c6.68 0 10.72 4 10.72 9.68v.08c0 6.48-5 9.84-11.32 9.84h-4.68V69h-6.16zm11 14.12c3.08 0 4.88-1.84 4.88-4.24v-.08c0-2.76-1.92-4.24-5-4.24h-4.76v8.56zm14.53-15.32H135V69h-6.08zm9.86 23.04v-.08c0-4.68 3.56-6.84 8.64-6.84a15.23 15.23 0 015.24.88v-.36c0-2.52-1.56-3.92-4.6-3.92a15.77 15.77 0 00-5.92 1.16L140.59 49a18.92 18.92 0 018.32-1.72c3.32 0 5.72.88 7.24 2.4s2.32 4 2.32 6.84V69h-5.88v-2.32a8.24 8.24 0 01-6.48 2.72c-4.04 0-7.36-2.32-7.36-6.56zm14-1.4v-1.08a9.43 9.43 0 00-3.88-.8c-2.6 0-4.2 1-4.2 3v.08c0 1.64 1.36 2.6 3.32 2.6 2.8-.04 4.72-1.6 4.72-3.8zM164 62.92V52.76h-2.56v-5.2H164v-5.48h6.08v5.48h5v5.2h-5v9.16c0 1.4.6 2.08 2 2.08a6.18 6.18 0 003-.76v4.88a9 9 0 01-4.8 1.24c-3.77 0-6.28-1.48-6.28-6.44zm16.43-10.16h-2.52v-5h2.52V46.4a7 7 0 011.72-5.19 6.63 6.63 0 014.92-1.68 13.5 13.5 0 014.32.59v5a7.7 7.7 0 00-2.76-.52c-1.4 0-2.2.72-2.2 2.32v.84h4.92v5h-4.84V69h-6.08zm12.41 5.64v-.08c0-6.16 5-11.16 11.64-11.16S216 52.08 216 58.24v.08c0 6.16-5 11.16-11.64 11.16s-11.52-4.92-11.52-11.08zm17.2 0v-.08a5.7 5.7 0 00-5.64-5.92c-3.48 0-5.56 2.68-5.56 5.84v.08a5.7 5.7 0 005.64 5.92c3.52 0 5.52-2.68 5.52-5.84zm9.85-10.84H226v4.32c1.24-3 3.24-4.88 6.84-4.72v6.36h-.32c-4 0-6.52 2.44-6.52 7.56V69h-6.08zm15.91 0h6.08v3a7.66 7.66 0 016.32-3.44 6.42 6.42 0 016 3.4 8.83 8.83 0 017-3.4c4.52 0 7.24 2.72 7.24 7.88v14h-6.08V57c0-2.88-1.28-4.36-3.56-4.36s-3.6 1.52-3.6 4.36v12h-6.08V57c0-2.88-1.28-4.36-3.56-4.36s-3.68 1.48-3.68 4.36v12h-6.08z"/></g></svg>