<svg id="Layer_1" data-name="Layer 1" xmlns="http://www.w3.org/2000/svg" viewBox="0 0 1006 196"><defs><style>.cls-1{fill:#ff931e}.cls-2,.cls-3{fill:#f48122;fill-rule:evenodd}.cls-3{fill:#ffa94b}</style></defs><path class="cls-1" d="M380.88 86.56l-12.29 12.78a28.16 28.16 0 00-21.25-9.13 25 25 0 00-18.42 7.48 26.06 26.06 0 00-7.3 18.75 26.06 26.06 0 007.3 18.76 25.05 25.05 0 0018.43 7.47 28.16 28.16 0 0021.25-9.13l12.28 12.78c-9 9.63-20.08 14.44-33.53 14.44-12.78 0-23.57-4.14-32.37-12.61s-13.12-19.09-13.12-31.7 4.32-23.08 13.14-31.54 19.59-12.79 32.37-12.79c13.42 0 24.54 4.81 33.51 14.44zm5.31-33.83h19.92V131c0 8.14 2.65 11.62 10 11.62a21.11 21.11 0 006-.66v17.76a36 36 0 01-9.47 1c-17.59 0-26.39-9-26.39-27.06zm34.53 63.87A42.24 42.24 0 01434 85.06c8.8-8.47 19.59-12.79 32.37-12.79s23.57 4.32 32.37 12.78A42.24 42.24 0 01512 116.59a42.22 42.22 0 01-13.27 31.54c-8.8 8.47-19.59 12.79-32.37 12.79s-23.55-4.32-32.36-12.78a42.29 42.29 0 01-13.28-31.54zm64.08 18.75a25.8 25.8 0 007.47-18.76A25.14 25.14 0 00484.8 98a26.27 26.27 0 00-37 0 25.72 25.72 0 00-7.3 18.6 26.32 26.32 0 007.3 18.75 26.67 26.67 0 0037 0zm32.7-60.59h19.92v49c0 11.45 6.14 18.59 16.93 18.59 10.62 0 18.26-8 18.26-19.43V74.75h19.92V133c0 7.13 1.66 9.62 6.14 9.62a40.19 40.19 0 004.15-.33v16.27a28.71 28.71 0 01-9.79 1.33c-5.15 0-9.13-1.16-12.29-3.32a15.64 15.64 0 01-6-8.8c-4.82 8.14-13.28 12.29-25.4 12.29-19.92 0-31.87-12.78-31.87-33.53zm153.38 12.1V42.7h19.92v90.47c0 7.14 1.66 9.79 6.14 9.79a40 40 0 004.15-.33v16.1a28.71 28.71 0 01-9.79 1.33c-4.81 0-8.63-.83-11.62-2.65a15.41 15.41 0 01-6.81-10.13c-5.81 8.8-15.43 13.12-28.71 13.12a39.77 39.77 0 01-29.88-12.61c-8-8.47-12-18.76-12-31.21s4-22.74 11.95-31a39.74 39.74 0 0129.88-12.62c13.49-.04 23.62 5.93 26.77 13.9zm-6 48a24.39 24.39 0 007.47-18.26 24.42 24.42 0 00-7.47-18.26A24.8 24.8 0 00646.82 91a24 24 0 00-17.77 7.31c-4.64 4.81-7 11-7 18.26s2.33 13.44 7 18.26a24 24 0 0017.76 7.3 24.75 24.75 0 0018.1-7.3zm49.51 23.54V92.83h-13.62V74.74h13.62v-4.15c0-12.79 2.65-19.59 9.12-24.74 4.48-3.65 11.29-5.48 20.75-5.48a45.14 45.14 0 018.63.66v17.1a26.82 26.82 0 00-7.64-.83c-7.47 0-11 3.32-11 11.79v5.64h15.77v18.1H734.3v65.57zm44.47-115.71h19.92V131c0 8.14 2.66 11.62 10 11.62a21.13 21.13 0 006-.66v17.76a35.9 35.9 0 01-9.46 1c-17.6 0-26.4-9-26.4-27.06zm34.54 73.87A42.25 42.25 0 01806.67 85c8.8-8.47 19.59-12.79 32.37-12.79s23.58 4.34 32.37 12.79a42.25 42.25 0 0113.29 31.54 42.24 42.24 0 01-13.28 31.54c-8.8 8.47-19.59 12.79-32.37 12.79s-23.57-4.32-32.37-12.78a42.24 42.24 0 01-13.28-31.53zm64.08 18.75a25.76 25.76 0 007.46-18.76A25.14 25.14 0 00857.47 98a26.27 26.27 0 00-37 0 25.7 25.7 0 00-7.3 18.6 26.29 26.29 0 007.31 18.75 26.67 26.67 0 0037 0zm52.12 23.07l-27.89-83.66h18.76l17.43 52.12 16.93-52.13h15.1l16.94 52.12 17.43-52.12h18.92l-28.05 83.67h-15.43l-17.27-52.95-17.26 53z"/><path class="cls-2" d="M281 146c-39.85-58-92.81-64.8-122-53-56.22 22.73-85.64 49.69-158-12 .23 61.77 59.27 118.7 101 112s101.15-72.81 179-47z"/><path class="cls-3" d="M123 135c44.38-20.81 76.23-19 89-17 23 3.66 49.12 10.49 69 28-38.57-65.27-81.65-63.48-128-56-57.4 9.26-79.64 52.69-152-9 23.69 78.47 67 79.78 122 54z"/><path class="cls-2" d="M191 72c-23.45-36.39-57.78-42.85-77-38-37 9.35-56.81 22.55-102-17-1.52 35.05 37.79 67.17 65 66 41.14-.34 64.28-30.55 114-11z"/><path class="cls-3" d="M90 56c29.3-9 49.78-7 58-5 14.8 3.52 30.61 9.81 43 21-23.45-36.39-46.58-44-80-41-37.07 3.31-53.81 25.55-99-14 13.21 46 41.69 50.16 78 39z"/><path class="cls-1" d="M306 6.54a2.15 2.15 0 114.29 0v32.19H324a2 2 0 012 2 2 2 0 01-2 2h-15.92a2.17 2.17 0 01-2.08-2.2zm28-.76a2.26 2.26 0 012.44-2.23 2.28 2.28 0 012.51 2.23v.7a2.31 2.31 0 01-2.51 2.23A2.29 2.29 0 01334 6.48zm.38 10.66a2.09 2.09 0 114.18 0v24.41a2 2 0 01-2.07 2.15 2.08 2.08 0 01-2.12-2.12zm15.49 31.76a1.93 1.93 0 01-1.09-1.74 2 2 0 011.9-1.85 1.67 1.67 0 01.93.27 17.7 17.7 0 009.95 3c6.2 0 10.22-3.42 10.22-10V34.6c-2.45 3.26-5.87 5.93-11 5.93a13 13 0 01-13.21-13.16v-.11A13.05 13.05 0 01360.74 14a13.2 13.2 0 0111 5.65v-3.2a2.07 2.07 0 012.06-2.12 2.11 2.11 0 012.12 2.12v21.36c0 4.35-1.3 7.67-3.58 9.95-2.51 2.5-6.26 3.75-10.72 3.75a22 22 0 01-11.75-3.31zm22-20.89v-.11c0-5.76-5-9.51-10.33-9.51s-9.74 3.7-9.74 9.46v.11a9.52 9.52 0 009.74 9.57c5.35 0 10.35-3.83 10.35-9.52zm13.67-22.46a2.1 2.1 0 114.19 0v14.63a10.65 10.65 0 019.62-5.48c6.8 0 10.77 4.57 10.77 11.26v15.6a2.07 2.07 0 01-2.06 2.14 2.09 2.09 0 01-2.13-2.12v-14.6c0-5.22-2.82-8.48-7.77-8.48s-8.43 3.53-8.43 8.81v14.24a2 2 0 01-2.07 2.15 2.09 2.09 0 01-2.12-2.12zM420 35.25v-17h-2.28a1.91 1.91 0 01-1.85-1.85 1.87 1.87 0 011.85-1.85H420V8a2.08 2.08 0 012.07-2.12A2.16 2.16 0 01424.21 8v6.64h7.29a1.92 1.92 0 011.9 1.85 1.88 1.88 0 01-1.9 1.85h-7.29v16.37c0 3.42 1.9 4.68 4.73 4.68a11.67 11.67 0 002.56-.39 1.82 1.82 0 011.79 1.8 1.75 1.75 0 01-1.2 1.63 10.53 10.53 0 01-4.13.76c-4.51 0-7.96-2.19-7.96-7.94zm22.37-30.4a2.1 2.1 0 114.19 0v15.39c2.28-3.37 5.6-6.25 10.77-6.25 6.74 0 13.43 5.33 13.43 14.57v.11c0 9.19-6.64 14.63-13.43 14.63a12.69 12.69 0 01-10.77-6v3.53a2.07 2.07 0 01-2.07 2.17 2.12 2.12 0 01-2.12-2.12zm24.09 23.88v-.11c0-6.64-4.56-10.88-9.89-10.88a10.49 10.49 0 00-10.17 10.82v.11c0 6.53 5 10.88 10.17 10.88 5.43 0 9.89-4.03 9.89-10.82zm23.77 14.63c-7.72 0-14-5.93-14-14.63v-.11c0-8.11 5.71-14.63 13.49-14.63 8.32 0 13.05 6.8 13.05 14.25a2 2 0 01-2 2h-20.33c.6 6.1 4.89 9.52 9.9 9.52a11.5 11.5 0 008.1-3.26 1.86 1.86 0 011.2-.49 1.83 1.83 0 011.85 1.79 1.8 1.8 0 01-.66 1.36 14.27 14.27 0 01-10.6 4.2zm8.32-16.26c-.44-5.12-3.37-9.58-9-9.58-4.9 0-8.6 4.08-9.14 9.58zm11.15-10.66a2.1 2.1 0 114.19 0v3a10.64 10.64 0 019.62-5.44c6.8 0 10.77 4.57 10.77 11.26v15.6a2.1 2.1 0 11-4.19 0V26.28c0-5.22-2.83-8.48-7.77-8.48s-8.43 3.53-8.43 8.81v14.24a2 2 0 01-2.07 2.15 2.08 2.08 0 01-2.12-2.12zm59.6 24.41a2.09 2.09 0 11-4.18 0v-3.8c-2.29 3.37-5.61 6.25-10.77 6.25-6.75 0-13.43-5.33-13.43-14.57v-.11c0-9.19 6.68-14.63 13.43-14.63 5.22 0 8.59 2.83 10.77 6V4.85a2 2 0 012.06-2.12 2.09 2.09 0 012.12 2.12zm-24.09-12.29v.11c0 6.64 4.62 10.88 9.9 10.88s10.17-4.41 10.17-10.88v-.11a10.45 10.45 0 00-10.17-10.82c-5.44 0-9.9 4.03-9.9 10.82z"/></svg>