<svg version="1.0" xmlns="http://www.w3.org/2000/svg" width="906.667" height="906.667" viewBox="0 0 680 680"><path d="M81.9 164.6c-.2 5.1.5 14.4 1.5 18.9 6.4 29.8 21.4 53.9 48.4 77.5 16 13.9 40.6 27.1 57.2 30.5 1.4.3 4.8 1 7.5 1.6 9.3 1.9 39.2.3 49.5-2.6.8-.2 2.6-.6 4-.9 7.8-1.3 23.9-6.1 44.4-13.2 10.9-3.8 32.7-10.5 38.9-12 5-1.2 15.3-3.2 20.2-4 9-1.4 35.1-1.3 44 .2 15.6 2.5 19.2 3.4 32.5 8 5.2 1.8 9.5 3.2 9.7 3 .7-.7-16.5-24.2-23.1-31.5-21-23.1-37.3-34.9-59.4-43-8.1-3-23.4-6.5-33.7-7.6-5.7-.6-32-.7-39.5-.1-5 .4-16.1 1.8-18.5 2.2-1.1.3-3.6.7-5.5 1-1.9.3-5.1.9-7 1.4-1.9.5-4.6 1.1-6 1.4-1.4.2-5.4 1.2-9 2.1l-8 2-8 2c-22.3 5.8-43.2 8.2-53.7 6.1-1.6-.3-4.8-.8-7.3-1.1-20-2.8-49.5-19.3-77.2-43.3-1.7-1.4-1.8-1.3-1.9 1.4z"/><path d="M60.4 301.8c.4 6.8.9 12.9 1.1 13.5.2.7.6 3 .9 5.2 1.6 12.3 6.1 29.6 11.6 44 22.1 58.7 66.7 110.2 117.4 135.7 9.3 4.7 26.6 11.1 33.1 12.2 1.7.3 4.1.9 5.5 1.2 1.4.4 8.4.8 15.5 1 26.3.7 43.5-5.5 100-35.6 4.4-2.4 8.5-4.6 9-5 .6-.4 4.6-2.7 9-5 4.4-2.4 9.6-5.2 11.5-6.3 6.2-3.5 39.2-20.1 47.5-23.9 30.5-14 67.6-25.4 92.5-28.3 3-.4 6.9-.9 8.5-1.2 4.6-.8 39.4-1 44.5-.2 2.5.4 7 1 10 1.3 9.7 1.1 33.6 6.6 40.6 9.3 2.3.8 1.2-1-10.1-18.2-19.3-29.1-43.4-55.1-63.5-68.5-1.3-.8-3.5-2.4-4.9-3.5-1.4-1.1-3.5-2.6-4.6-3.2-3.6-2.3-25.2-12.7-28.5-13.8-.3-.1-1.7-.7-3.2-1.3-8.4-3.5-30.8-8.3-45.8-9.8-9.7-.9-37.8-.6-48.8.6-5.3.6-11.7 1.2-14.2 1.4-5.9.5-14.1 1.6-16 2.1-.8.2-3.7.7-6.5 1.1-24.7 3.1-48.6 10-90 25.9-29.8 11.5-42.9 16-54.5 18.5-5.7 1.2-6.5 1.4-16.5 2.9-5.9.9-29 .7-33.1-.2-1.2-.3-3.9-.8-6-1.1-15.6-2.5-33.3-9.6-57.9-23-4.9-2.7-20.9-13.5-30-20.4-8.6-6.5-12.9-9.9-22.9-18.1-1.8-1.6-1.9-1.3-1.2 10.7z"/></svg>